<?xml version="1.0" encoding="utf-8"?>
<!-- Generator: Adobe Illustrator 22.1.0, SVG Export Plug-In . SVG Version: 6.00 Build 0)  -->
<svg version="1.1" id="Laag_1" xmlns="http://www.w3.org/2000/svg" xmlns:xlink="http://www.w3.org/1999/xlink" x="0px" y="0px"
	 viewBox="0 0 1366 768" style="enable-background:new 0 0 1366 768;" xml:space="preserve">
<style type="text/css">
	.st0{fill:#0071BC;}
	.st1{fill:#FFFFFF;stroke:#000000;stroke-miterlimit:10;}
	.st2{fill:#2A6F56;}
	.st3{fill:#FFFFFF;stroke:#29ABE2;stroke-width:8.0666;stroke-miterlimit:10;}
	.st4{fill:#3FA9F5;stroke:#29ABE2;stroke-width:2.5137;stroke-miterlimit:10;}
	.st5{fill:#FFFFFF;stroke:#8CC63F;stroke-width:6.0433;stroke-miterlimit:10;}
	.st6{fill:#7AC943;stroke:#8CC63F;stroke-width:2.8474;stroke-miterlimit:10;}
	.st7{fill:#FFFFFF;stroke:#3FA9F5;stroke-width:2.4979;stroke-miterlimit:10;}
	.st8{fill:#FFFFFF;}
	.st9{fill:#B8D432;}
	.st10{fill:#7FBA00;}
	.st11{fill:#0095BC;}
	.st12{fill:#FFFFFF;stroke:#000000;stroke-width:1.571700e-02;stroke-miterlimit:10;}
	.st13{fill:#FFFFFF;stroke:#000000;stroke-width:1.896413e-02;stroke-miterlimit:10;}
	.st14{fill:#FFFFFF;stroke:#000000;stroke-width:2.177311e-02;stroke-miterlimit:10;}
	.st15{fill:#FFFFFF;stroke:#000000;stroke-width:1.877159e-02;stroke-miterlimit:10;}
	.st16{fill:#FFFFFF;stroke:#000000;stroke-width:2.343383e-02;stroke-miterlimit:10;}
	.st17{fill:none;stroke:#FFFFFF;stroke-width:0.4142;stroke-miterlimit:10;}
	.st18{fill:#FFFFFF;stroke:#FFFFFF;stroke-width:0.2969;stroke-miterlimit:10;}
	.st19{fill:#0081FF;}
	.st20{fill:#FFFFFF;stroke:#000000;stroke-width:6.181871e-03;stroke-miterlimit:10;}
	.st21{fill:#FFFFFF;stroke:#FFFFFF;stroke-width:0.5873;stroke-miterlimit:10;}
	.st22{fill:#FFFFFF;stroke:#000000;stroke-width:1.222807e-02;stroke-miterlimit:10;}
	.st23{font-family:'MyriadPro-Regular';}
	.st24{font-size:61px;}
	.st25{fill:#FFFFFF;stroke:#7FBA00;stroke-width:2.4391;stroke-miterlimit:10;}
	.st26{fill:#C1272D;}
	.st27{fill:#009245;}
	.st28{fill:#D9E021;}
	.st29{fill:#FFFF00;}
	.st30{fill:#FCC021;}
	.st31{fill:#FF931E;}
	.st32{fill:#ED4F24;}
	.st33{fill:#2E3192;}
	.st34{fill:#666666;}
	.st35{fill:#FFFFFF;stroke:#000000;stroke-width:1.0192;stroke-miterlimit:10;}
	.st36{fill:#FFFFFF;stroke:#29ABE2;stroke-width:8.2214;stroke-miterlimit:10;}
	.st37{fill:#3FA9F5;stroke:#29ABE2;stroke-width:3.2996;stroke-miterlimit:10;}
	.st38{fill:#FFFFFF;stroke:#8CC63F;stroke-width:6.1593;stroke-miterlimit:10;}
	.st39{fill:#7AC943;stroke:#8CC63F;stroke-width:2.902;stroke-miterlimit:10;}
	.st40{fill:#41210A;stroke:#000000;stroke-width:0.9439;stroke-miterlimit:10;}
	.st41{fill:#FF7257;stroke:#000000;stroke-width:0.1335;stroke-miterlimit:10;}
	.st42{fill:#845D36;stroke:#000000;stroke-width:0.2725;stroke-miterlimit:10;}
	.st43{fill:#523418;stroke:#000000;stroke-width:0.2728;stroke-miterlimit:10;}
	.st44{fill:#FF7257;stroke:#000000;stroke-width:0.1544;stroke-miterlimit:10;}
	.st45{fill:#41210A;stroke:#000000;stroke-width:0.4093;stroke-miterlimit:10;}
	.st46{fill:#41210A;stroke:#000000;stroke-width:0.2602;stroke-miterlimit:10;}
	.st47{fill:#E3E3E3;stroke:#000000;stroke-width:0.8018;stroke-miterlimit:10;}
	.st48{fill:#FED9A2;}
	.st49{fill:#F15A24;}
	.st50{fill:#CCCCCC;}
	.st51{fill:#E3E3E3;}
	.st52{fill:#E9E9E0;}
	.st53{fill:#FBB03B;}
	.st54{fill:#E9F7E2;}
	.st55{fill:#006837;}
	.st56{font-family:'CooperBlack';}
	.st57{font-size:29.203px;}
	.st58{font-size:45px;}
	.st59{font-size:47px;}
	.st60{font-size:29.9095px;}
	.st61{font-size:21.6013px;}
	.st62{fill:#8C6239;}
	.st63{stroke:#FFFFFF;stroke-width:0.6418;stroke-miterlimit:10;}
	.st64{stroke:#FFFFFF;stroke-width:0.6687;stroke-miterlimit:10;}
	.st65{fill:none;stroke:#FFFFFF;stroke-width:3.1594;stroke-miterlimit:10;}
	.st66{fill:#FFFFFF;stroke:#FFFFFF;stroke-width:0.6295;stroke-miterlimit:10;}
	.st67{fill:#F7931E;}
	.st68{fill:#00FFFF;}
	.st69{fill:#41210A;stroke:#000000;stroke-width:1.1822;stroke-miterlimit:10;}
	.st70{fill:#FF7257;stroke:#000000;stroke-width:0.1672;stroke-miterlimit:10;}
	.st71{fill:#845D36;stroke:#000000;stroke-width:0.3413;stroke-miterlimit:10;}
	.st72{fill:#523418;stroke:#000000;stroke-width:0.3417;stroke-miterlimit:10;}
	.st73{fill:#FF7257;stroke:#000000;stroke-width:0.1934;stroke-miterlimit:10;}
	.st74{fill:#41210A;stroke:#000000;stroke-width:0.5126;stroke-miterlimit:10;}
	.st75{fill:#41210A;stroke:#000000;stroke-width:0.3259;stroke-miterlimit:10;}
	.st76{fill:#E3E3E3;stroke:#000000;stroke-width:1.0042;stroke-miterlimit:10;}
	.st77{stroke:#FFFFFF;stroke-width:0.5719;stroke-miterlimit:10;}
	.st78{fill:none;stroke:#FFFFFF;stroke-width:3.957;stroke-miterlimit:10;}
	.st79{fill:#FFFFFF;stroke:#FFFFFF;stroke-width:0.7884;stroke-miterlimit:10;}
	.st80{fill:#FFFFFF;stroke:#000000;stroke-width:3;stroke-miterlimit:10;}
	.st81{fill:none;stroke:#000000;stroke-miterlimit:10;}
	.st82{fill:#FFFFFF;stroke:#000000;stroke-width:1.6966;stroke-miterlimit:10;}
	.st83{fill:#39B54A;}
	.st84{fill:none;stroke:#000000;stroke-width:1.2329;stroke-miterlimit:10;}
	.st85{fill:#FFFFFF;stroke:#000000;stroke-width:2.7945;stroke-miterlimit:10;}
	.st86{font-size:11.5237px;}
	.st87{font-size:40.7617px;}
	.st88{font-size:41.8616px;}
	.st89{font-size:8.8644px;}
	.st90{fill:none;stroke:#000000;stroke-width:1.3443;stroke-miterlimit:10;}
</style>
<g id="Database">
	<path class="st11" d="M559.4,70.2v176.1c0,12.7-29.9,23-66.8,23c-36.9,0-66.8-10.3-66.8-23V70.2H559.4z"/>
	<ellipse class="st8" cx="492.6" cy="68.5" rx="67.3" ry="32.4"/>
	<ellipse class="st9" cx="492.9" cy="64.8" rx="55.8" ry="22.7"/>
	<path class="st10" d="M544.4,75.6c0,8.4-19.8,15.1-44.3,15.1c-2.1,0-4.1,0-6-0.1c-2,0.1-4,0.1-6,0.1c-24.4,0-44.3-6.8-44.3-15.1
		c0-8.3,19.8-15.1,44.3-15.1c2.1,0,4.1,0,6,0.1c2-0.1,4-0.1,6-0.1C524.5,60.5,544.4,67.3,544.4,75.6z"/>
	<g id="Chart">
		<polygon class="st21" points="515.4,200.6 511.8,202.7 511.8,198.6 		"/>
		<polygon class="st21" points="447.7,105.3 449.5,109.3 445.8,109.3 		"/>
		<polygon class="st0" points="484.8,140.8 491.1,152.8 489.2,154 483.2,142.4 		"/>
		<polygon class="st0" points="511.8,134.7 493.3,153.2 491.9,151.4 510.4,132.9 		"/>
		<polygon class="st19" points="484.8,140.8 483.2,142.4 482.8,141.7 484.7,140.5 		"/>
		<polygon class="st22" points="484.5,131.2 484.1,131.5 484.4,131.1 		"/>
		<polygon class="st19" points="484.8,140.8 483.2,142.4 482.8,141.7 484.7,140.5 		"/>
		<text transform="matrix(0.8633 0 0 1 443.7274 197.9129)" class="st8 st23 st24">SQL</text>
	</g>
</g>
<g id="Acceleration">
	<g id="Groene_kader">
	</g>
</g>
<g>
	<g>
		<polygon class="st0" points="773.5,359.7 821.5,370 821.5,389.3 773.5,396.7 		"/>
		<path class="st0" d="M774,360.3l47,10.1v18.4l-47,7.3V360.3 M773,359.1v38.3l49.1-7.7v-20.1L773,359.1L773,359.1z"/>
	</g>
	<g>
		<polygon class="st0" points="737.6,298 781.2,275.8 793.8,290.6 762,326.4 		"/>
		<path class="st0" d="M738.4,298.2l42.7-21.7l12.1,14.1L762,325.6L738.4,298.2 M736.8,297.9l25.2,29.3l32.5-36.6l-13.2-15.4
			L736.8,297.9L736.8,297.9z"/>
	</g>
	<g>
		<polygon class="st0" points="669.3,273.3 688.1,229 707.5,232.3 706.8,279.7 		"/>
		<path class="st0" d="M670.1,272.9l18.3-43.4l18.6,3.2l-0.8,46.4L670.1,272.9 M668.6,273.7l38.7,6.6l0.8-48.4l-20.3-3.5
			L668.6,273.7L668.6,273.7z"/>
	</g>
	<g>
		<polygon class="st0" points="600.8,297.1 585.9,251.4 603,241.7 633.7,278.5 		"/>
		<path class="st0" d="M601.1,296.3l-14.5-44.7l16.4-9.2l30,36L601.1,296.3 M600.5,297.8l34-19.1l-31.3-37.6l-17.8,10L600.5,297.8
			L600.5,297.8z"/>
	</g>
	<g>
		<polygon class="st0" points="563.9,358.3 522.4,332.6 529.2,314.5 576.9,323.4 		"/>
		<path class="st0" d="M563.7,357.5L523,332.4l6.5-17.3l46.7,8.8L563.7,357.5 M564.2,359l13.4-36l-48.8-9.2l-7,18.9L564.2,359
			L564.2,359z"/>
	</g>
	<g>
		<polygon class="st0" points="576.1,428.2 527.3,434.5 520.5,416.4 563.1,393.4 		"/>
		<path class="st0" d="M575.3,427.8l-47.7,6.2l-6.5-17.3l41.6-22.6L575.3,427.8 M576.8,428.6l-13.4-36l-43.4,23.5l7,18.9
			L576.8,428.6L576.8,428.6z"/>
	</g>
	<g>
		<polygon class="st0" points="631.5,474.2 598.3,509.6 581.2,500 598.6,455.7 		"/>
		<path class="st0" d="M630.7,474.3l-32.5,34.6l-16.4-9.2l17-43.3L630.7,474.3 M632.3,474.1l-34-19.1l-17.7,45.2l17.8,10
			L632.3,474.1L632.3,474.1z"/>
	</g>
	<g>
		<polygon class="st0" points="704.3,474.7 702.2,522.6 682.7,525.9 666.8,481.1 		"/>
		<path class="st0" d="M703.7,475.3l-2,46.9l-18.6,3.2l-15.6-43.8L703.7,475.3 M704.8,474.1l-38.7,6.6l16.3,45.8l20.3-3.5
			L704.8,474.1L704.8,474.1z"/>
	</g>
	<g>
		<polygon class="st0" points="760.4,429.5 790.4,467.5 777.7,482.2 735.9,457.9 		"/>
		<path class="st0" d="M760.3,430.3l29.4,37.2l-12.1,14.1l-40.8-23.8L760.3,430.3 M760.4,428.7L735.1,458l42.6,24.9l13.2-15.4
			L760.4,428.7L760.4,428.7z"/>
	</g>
	<g>
		<polygon class="st0" points="773.5,359.7 821.5,370 821.5,389.3 773.5,396.7 		"/>
		<path class="st0" d="M774,360.3l47,10.1v18.4l-47,7.3V360.3 M773,359.1v38.3l49.1-7.7v-20.1L773,359.1L773,359.1z"/>
	</g>
</g>
<ellipse class="st0" cx="667.4" cy="375.7" rx="114.1" ry="111.2"/>
<ellipse class="st35" cx="670.7" cy="377.5" rx="77.4" ry="75.5"/>
<g>
	<g>
		<polygon class="st2" points="963.2,533.5 1000.9,541.6 1000.9,556.8 963.2,562.7 		"/>
		<path class="st2" d="M963.6,534l36.9,7.9v14.5l-36.9,5.8V534 M962.8,533.1v30.1l38.6-6v-15.8L962.8,533.1L962.8,533.1z"/>
	</g>
	<g>
		<polygon class="st2" points="934.9,485.1 969.2,467.6 979.2,479.2 954.1,507.4 		"/>
		<path class="st2" d="M935.6,485.2l33.5-17.1l9.5,11.1l-24.5,27.6L935.6,485.2 M934.3,484.9l19.8,23l25.6-28.8l-10.4-12.1
			L934.3,484.9L934.3,484.9z"/>
	</g>
	<g>
		<polygon class="st2" points="881.3,465.6 896.1,430.8 911.3,433.4 910.7,470.7 		"/>
		<path class="st2" d="M881.9,465.3l14.4-34.1l14.6,2.5l-0.6,36.5L881.9,465.3 M880.8,465.9l30.4,5.2l0.6-38.1l-15.9-2.7
			L880.8,465.9L880.8,465.9z"/>
	</g>
	<g>
		<polygon class="st2" points="827.4,484.3 815.8,448.4 829.2,440.9 853.3,469.8 		"/>
		<path class="st2" d="M827.7,483.7l-11.4-35.1l12.9-7.2l23.6,28.3L827.7,483.7 M827.2,484.9l26.7-15l-24.6-29.5l-14,7.9
			L827.2,484.9L827.2,484.9z"/>
	</g>
	<g>
		<polygon class="st2" points="798.5,532.4 765.9,512.2 771.2,498 808.7,505.1 		"/>
		<path class="st2" d="M798.3,531.8l-31.9-19.8l5.1-13.6l36.7,6.9L798.3,531.8 M798.7,533l10.6-28.3l-38.3-7.2l-5.5,14.8L798.7,533
			L798.7,533z"/>
	</g>
	<g>
		<polygon class="st2" points="808,587.4 769.7,592.4 764.4,578.1 797.8,560 		"/>
		<path class="st2" d="M807.5,587.1l-37.5,4.9l-5.1-13.6l32.7-17.7L807.5,587.1 M808.6,587.7L798,559.5L763.9,578l5.5,14.8
			L808.6,587.7L808.6,587.7z"/>
	</g>
	<g>
		<polygon class="st2" points="851.6,623.5 825.5,651.3 812.1,643.8 825.7,609 		"/>
		<path class="st2" d="M850.9,623.6l-25.5,27.2l-12.9-7.2l13.4-34.1L850.9,623.6 M825.6,651.8l26.6-28.4l0,0l-26.7-15l-13.9,35.6
			L825.6,651.8"/>
	</g>
	<g>
		<polygon class="st2" points="908.8,623.9 907.2,661.5 891.9,664.2 879.4,629 		"/>
		<path class="st2" d="M908.3,624.4l-1.6,36.8l-14.6,2.5l-12.2-34.5L908.3,624.4 M909.2,623.4l-30.4,5.2l12.8,36l15.9-2.7
			L909.2,623.4L909.2,623.4z"/>
	</g>
	<g>
		<polygon class="st2" points="952.9,588.4 976.4,618.2 966.5,629.8 933.7,610.7 		"/>
		<path class="st2" d="M952.8,589l23.1,29.2l-9.5,11.1l-32.1-18.7L952.8,589 M952.9,587.7l-19.8,23l33.5,19.6l10.4-12.1L952.9,587.7
			L952.9,587.7z"/>
	</g>
	<g>
		<polygon class="st2" points="963.2,533.5 1000.9,541.6 1000.9,556.8 963.2,562.7 		"/>
		<path class="st2" d="M963.6,534l36.9,7.9v14.5l-36.9,5.8V534 M962.8,533.1v30.1l38.6-6v-15.8L962.8,533.1L962.8,533.1z"/>
	</g>
</g>
<ellipse class="st2" cx="882.6" cy="547.5" rx="89.6" ry="87.4"/>
<ellipse class="st35" cx="882.4" cy="547.5" rx="60.8" ry="59.3"/>
<path class="st36" d="M681.3,324.8c25.7,2.7,45.7,24.4,45.7,50.8c0,33.1-22.9,51.1-51.1,51.1c-21.5,0-40-13.3-47.5-32.2"/>
<polygon class="st37" points="648.9,398.3 628.3,397.9 607.7,397.4 618.6,384.7 629.5,371.9 639.2,385.1 "/>
<path class="st38" d="M892.7,510.6c18.7,2.7,32.9,19.7,32.2,39.9c-0.8,25.3-18,38.6-38.7,38c-15.8-0.5-29-11.1-34-25.7"/>
<polygon class="st39" points="892.3,503.7 891.5,511.6 890.7,519.4 885.3,514.9 879.9,510.4 886.1,507.1 "/>
<g id="Developer">
	<g id="Bril">
		<polygon class="st52" points="375.8,76.5 326.2,76.4 375.9,76.4 375.9,82.1 		"/>
		<polygon class="st52" points="276.6,76.4 326.2,76.4 375.9,119.9 375.9,200.1 276.6,200.1 		"/>
		<rect x="276.6" y="197.7" class="st53" width="99.3" height="48.9"/>
		<text transform="matrix(0.9383 0 0 1 291.4043 229.1621)" class="st56 st57">XML</text>
		<text transform="matrix(0.9383 0 0 1 301.3018 167.4131)" class="st56 st58">&lt;/&gt;</text>
		<polygon class="st54" points="376.3,120.3 375.9,120.3 326.2,120.3 326.2,76.4 375.9,119.9 		"/>
		<polygon class="st54" points="376.3,120.3 375.9,119.9 375.9,82.1 		"/>
		<polygon class="st52" points="249.7,70.7 200.1,70.7 249.8,70.7 249.8,76.3 		"/>
		<polygon class="st52" points="150.4,70.7 200.1,70.7 249.8,114.2 249.8,194.3 150.4,194.3 		"/>
		<rect x="150.4" y="191.9" class="st53" width="99.3" height="48.9"/>
		<text transform="matrix(0.9383 0 0 1 165.2734 223.4092)" class="st56 st57">JSON</text>
		<text transform="matrix(0.9383 0 0 1 175.1709 161.6602)" class="st56 st59">{}</text>
		<polygon class="st54" points="250.1,114.5 249.8,114.5 200.1,114.5 200.1,70.7 249.8,114.2 		"/>
		<polygon class="st54" points="250.1,114.5 249.8,114.2 249.8,76.3 		"/>
		<polygon class="st52" points="117.4,70.7 67.8,70.7 117.5,70.7 117.5,76.4 		"/>
		<polygon class="st52" points="18.1,70.7 67.8,70.7 117.5,115.2 117.5,197.3 18.1,197.3 		"/>
		<rect x="18.1" y="194.8" class="st53" width="99.4" height="50.1"/>
		<text transform="matrix(0.9167 0 0 1 32.9658 227.1084)" class="st56 st60">CSV</text>
		<polygon class="st54" points="117.9,115.6 117.5,115.6 67.8,115.6 67.8,70.7 117.5,115.2 		"/>
		<polygon class="st54" points="117.9,115.6 117.5,115.2 117.5,76.4 		"/>
		<rect x="27.6" y="145.6" class="st55" width="21.6" height="10"/>
		<rect x="55.3" y="134" class="st55" width="21.6" height="10"/>
		<rect x="55.3" y="145.6" class="st55" width="21.6" height="10"/>
		<rect x="80.7" y="134" class="st55" width="21.6" height="10"/>
		<rect x="80.7" y="145.6" class="st55" width="21.6" height="10"/>
		<rect x="27.6" y="158.9" class="st55" width="21.6" height="10"/>
		<rect x="55.3" y="158.9" class="st55" width="21.6" height="10"/>
		<rect x="80.7" y="158.9" class="st55" width="21.6" height="10"/>
		<text transform="matrix(0.9167 0 0 1 30.3916 141.3594)" class="st55 st56 st61">X</text>
	</g>
	<polygon class="st9" points="1256.2,640 1180.1,603.2 1104.5,640.9 1118.4,561.9 1056.6,506.4 1141.3,494.3 1178.7,422.3 
		1217.2,493.9 1302,504.9 1241.1,561.1 	"/>
	<rect x="1274.7" y="465.2" class="st85" width="53.9" height="78.2"/>
	<rect x="1152.4" y="376" class="st85" width="53.9" height="78.2"/>
	<rect x="1014.4" y="476.2" class="st85" width="53.9" height="78.2"/>
	<rect x="1146.9" y="492.5" class="st85" width="53.9" height="78.2"/>
	<rect x="1211.1" y="600" class="st85" width="53.9" height="78.2"/>
	<rect x="1073.4" y="602.5" class="st85" width="53.9" height="78.2"/>
	<text transform="matrix(1.1043 0 0 1 1158.5955 518.2739)" class="st56 st86">Feit</text>
	<text transform="matrix(1.0405 0 0 1 1029.031 731.2563)" class="st56 st87">Ster Modellen</text>
	<text transform="matrix(0.9036 0 0 1 986.0618 338.7951)" class="st56 st88">Data Vault Models</text>
	<text transform="matrix(1.1043 0 0 1 1076.1228 611.3452)" class="st56 st89">Dimensie</text>
	<text transform="matrix(1.1043 0 0 1 1212.0115 611.3452)" class="st56 st89">Dimensie</text>
	<text transform="matrix(1.1043 0 0 1 1278.8474 475.8823)" class="st56 st89">Dimensie</text>
	<text transform="matrix(1.1043 0 0 1 1158.5955 387.0727)" class="st56 st89">Dimensie</text>
	<text transform="matrix(1.1043 0 0 1 1021.2068 490.4575)" class="st56 st89">Dimensie</text>
	<rect x="965.9" y="242.1" class="st9" width="38.1" height="59.7"/>
	<rect x="1040.9" y="237.9" class="st0" width="38.1" height="59.7"/>
	<rect x="1190.3" y="245.1" class="st0" width="38.1" height="59.7"/>
	<rect x="1040.9" y="138.7" class="st9" width="38.1" height="59.7"/>
	<rect x="1185.8" y="138.7" class="st9" width="38.1" height="59.7"/>
	<rect x="1115.9" y="242.6" class="st83" width="38.1" height="59.7"/>
	<line class="st90" x1="1004" y1="272" x2="1040.9" y2="272.5"/>
	<line class="st90" x1="1060" y1="198.4" x2="1060" y2="237.9"/>
	<line class="st90" x1="1079" y1="271.7" x2="1115.9" y2="272.2"/>
	<line class="st90" x1="1153" y1="272.2" x2="1190" y2="272.8"/>
	<line class="st90" x1="1205.9" y1="197.4" x2="1205.9" y2="245.1"/>
	<rect x="1264.6" y="244.3" class="st9" width="38.1" height="59.7"/>
	<line class="st90" x1="1227.8" y1="274.7" x2="1264.7" y2="275.3"/>
</g>
</svg>
