<?xml version="1.0" encoding="utf-8"?>
<!-- Generator: Adobe Illustrator 22.1.0, SVG Export Plug-In . SVG Version: 6.00 Build 0)  -->
<svg version="1.1" xmlns="http://www.w3.org/2000/svg" xmlns:xlink="http://www.w3.org/1999/xlink" x="0px" y="0px"
	 viewBox="0 0 1366 768" style="enable-background:new 0 0 1366 768;" xml:space="preserve">
<style type="text/css">
	.st0{fill:#0071BC;}
	.st1{fill:#FFFFFF;}
	.st2{fill:#B8D432;}
	.st3{fill:#7FBA00;}
	.st4{fill:#0095BC;}
	.st5{fill:#FFFFFF;stroke:#000000;stroke-width:1.571700e-02;stroke-miterlimit:10;}
	.st6{fill:#FFFFFF;stroke:#000000;stroke-width:1.896413e-02;stroke-miterlimit:10;}
	.st7{fill:#FFFFFF;stroke:#000000;stroke-width:2.177311e-02;stroke-miterlimit:10;}
	.st8{fill:#FFFFFF;stroke:#000000;stroke-width:1.877159e-02;stroke-miterlimit:10;}
	.st9{fill:#FFFFFF;stroke:#000000;stroke-width:2.343383e-02;stroke-miterlimit:10;}
	.st10{fill:none;stroke:#FFFFFF;stroke-width:0.4142;stroke-miterlimit:10;}
	.st11{fill:#FFFFFF;stroke:#FFFFFF;stroke-width:0.2969;stroke-miterlimit:10;}
	.st12{fill:#0081FF;}
	.st13{fill:#FFFFFF;stroke:#000000;stroke-width:6.181871e-03;stroke-miterlimit:10;}
	.st14{fill:#FFFFFF;stroke:#FFFFFF;stroke-width:0.5873;stroke-miterlimit:10;}
	.st15{fill:#FFFFFF;stroke:#000000;stroke-width:1.222807e-02;stroke-miterlimit:10;}
	.st16{fill:#FFFFFF;stroke:#7FBA00;stroke-width:2.4391;stroke-miterlimit:10;}
	.st17{fill:#C1272D;}
	.st18{fill:#009245;}
	.st19{fill:#D9E021;}
	.st20{fill:#FFFF00;}
	.st21{fill:#FCC021;}
	.st22{fill:#FF931E;}
	.st23{fill:#ED4F24;}
	.st24{fill:#2E3192;}
	.st25{fill:#666666;}
	.st26{fill:#41210A;stroke:#000000;stroke-width:0.9439;stroke-miterlimit:10;}
	.st27{fill:#FF7257;stroke:#000000;stroke-width:0.1335;stroke-miterlimit:10;}
	.st28{fill:#845D36;stroke:#000000;stroke-width:0.2725;stroke-miterlimit:10;}
	.st29{fill:#523418;stroke:#000000;stroke-width:0.2728;stroke-miterlimit:10;}
	.st30{fill:#FF7257;stroke:#000000;stroke-width:0.1544;stroke-miterlimit:10;}
	.st31{fill:#41210A;stroke:#000000;stroke-width:0.4093;stroke-miterlimit:10;}
	.st32{fill:#41210A;stroke:#000000;stroke-width:0.2602;stroke-miterlimit:10;}
	.st33{fill:#E3E3E3;stroke:#000000;stroke-width:0.8018;stroke-miterlimit:10;}
	.st34{fill:#FED9A2;}
	.st35{fill:#F15A24;}
	.st36{fill:#CCCCCC;}
	.st37{fill:#E3E3E3;}
	.st38{fill:#E9E9E0;}
	.st39{fill:#FBB03B;}
	.st40{fill:#E9F7E2;}
	.st41{fill:#006837;}
	.st42{fill:#8C6239;}
	.st43{stroke:#FFFFFF;stroke-width:0.6418;stroke-miterlimit:10;}
	.st44{stroke:#FFFFFF;stroke-width:0.6687;stroke-miterlimit:10;}
	.st45{fill:none;stroke:#FFFFFF;stroke-width:3.1594;stroke-miterlimit:10;}
	.st46{fill:#FFFFFF;stroke:#FFFFFF;stroke-width:0.6295;stroke-miterlimit:10;}
	.st47{fill:#F7931E;}
	.st48{fill:#00FFFF;}
	.st49{fill:#41210A;stroke:#000000;stroke-width:1.1822;stroke-miterlimit:10;}
	.st50{fill:#FF7257;stroke:#000000;stroke-width:0.1672;stroke-miterlimit:10;}
	.st51{fill:#845D36;stroke:#000000;stroke-width:0.3413;stroke-miterlimit:10;}
	.st52{fill:#523418;stroke:#000000;stroke-width:0.3417;stroke-miterlimit:10;}
	.st53{fill:#FF7257;stroke:#000000;stroke-width:0.1934;stroke-miterlimit:10;}
	.st54{fill:#41210A;stroke:#000000;stroke-width:0.5126;stroke-miterlimit:10;}
	.st55{fill:#41210A;stroke:#000000;stroke-width:0.3259;stroke-miterlimit:10;}
	.st56{fill:#E3E3E3;stroke:#000000;stroke-width:1.0042;stroke-miterlimit:10;}
	.st57{stroke:#FFFFFF;stroke-width:0.5719;stroke-miterlimit:10;}
	.st58{fill:none;stroke:#FFFFFF;stroke-width:3.957;stroke-miterlimit:10;}
	.st59{fill:#FFFFFF;stroke:#FFFFFF;stroke-width:0.7884;stroke-miterlimit:10;}
	.st60{fill:#FFFFFF;stroke:#000000;stroke-width:3;stroke-miterlimit:10;}
	.st61{fill:none;stroke:#000000;stroke-miterlimit:10;}
	.st62{fill:#FFFFFF;stroke:#000000;stroke-width:1.6966;stroke-miterlimit:10;}
	.st63{fill:#39B54A;}
	.st64{fill:none;stroke:#000000;stroke-width:1.2329;stroke-miterlimit:10;}
	.st65{fill:#FFFFFF;stroke:#000000;stroke-width:2.7945;stroke-miterlimit:10;}
	.st66{fill:none;stroke:#000000;stroke-width:1.3443;stroke-miterlimit:10;}
	.st67{fill:#FFFFFF;stroke:#000000;stroke-width:1.0192;stroke-miterlimit:10;}
	.st68{fill:#2A6F56;}
	.st69{fill:#FFFFFF;stroke:#29ABE2;stroke-width:8.2214;stroke-miterlimit:10;}
	.st70{fill:#3FA9F5;stroke:#29ABE2;stroke-width:3.2996;stroke-miterlimit:10;}
	.st71{fill:#FFFFFF;stroke:#8CC63F;stroke-width:6.1593;stroke-miterlimit:10;}
	.st72{fill:#7AC943;stroke:#8CC63F;stroke-width:2.902;stroke-miterlimit:10;}
	.st73{fill:#FFFFFF;stroke:#3FA9F5;stroke-width:2.4979;stroke-miterlimit:10;}
	.st74{fill:#FFFFFF;stroke:#000000;stroke-miterlimit:10;}
	.st75{fill:#FFFFFF;stroke:#29ABE2;stroke-width:8.0666;stroke-miterlimit:10;}
	.st76{fill:#3FA9F5;stroke:#29ABE2;stroke-width:2.5137;stroke-miterlimit:10;}
	.st77{fill:#FFFFFF;stroke:#8CC63F;stroke-width:6.0433;stroke-miterlimit:10;}
	.st78{fill:#7AC943;stroke:#8CC63F;stroke-width:2.8474;stroke-miterlimit:10;}
	.st79{fill:#0B2242;}
	.st80{fill:#F2EC1C;}
	.st81{fill:#FF1F27;}
	.st82{fill:#B3B3B3;}
	.st83{fill:#11546F;}
	.st84{fill:none;stroke:#FF1F27;stroke-width:3.2712;stroke-miterlimit:10;}
	.st85{fill:#0B1C2E;}
	.st86{fill:#FF1D25;}
	.st87{fill:#F0514E;}
	.st88{fill:#FFFFFF;stroke:#0B2242;stroke-miterlimit:10;}
	.st89{font-family:'MyriadPro-Regular';}
	.st90{font-size:48px;}
</style>
<g id="Laag_1">
	<g id="Database">
		<g id="Chart">
		</g>
	</g>
	<g id="Acceleration">
		<g id="Groene_kader">
		</g>
	</g>
	<g id="Developer">
		<g id="Bril">
		</g>
	</g>
	<g id="Processen">
	</g>
	<g id="Processen__x28_1_x29_">
	</g>
</g>
<g id="Vliegende_start_achtergrond">
	<rect id="Achtergrond" class="st79" width="1366" height="768"/>
	<path class="st1" d="M1111.4,635.4c5.2,5.3,8.4,12.2,8.4,19.7c0,10.5-6.2,19.8-15.6,25.2c9.4,5.4,15.6,14.7,15.6,25.2
		c0,6.7-2.5,12.8-6.6,17.8c-0.5,16.3-15.7,29.3-34.5,29.3c-10.6,0-20.1-4.2-26.4-10.8c-6.2,5.3-14.7,8.6-24,8.6
		c-11.1,0-21-4.7-27.3-11.9c-7.5,5.5-17.1,8.8-27.6,8.8c-10.8,0-20.7-3.5-28.2-9.2c-6.1,2.9-13.2,4.6-20.6,4.6
		c-8.5,0-16.4-2.1-23-5.9c-7.7,6.5-18.2,10.5-29.8,10.5c-7.3,0-14.1-1.6-20.2-4.4c-6,2.8-12.9,4.4-20.1,4.4
		c-12.8,0-24.3-4.9-32.2-12.7c-3.5,0.8-7.1,1.2-10.8,1.2c-6.4,0-12.5-1.2-18-3.4c-5.5,2.2-11.6,3.4-18,3.4c-7.8,0-15.2-1.8-21.5-5
		c-6.3,3.2-13.7,5-21.5,5c-5.7,0-11.2-1-16.2-2.7c-7.4,5.2-16.7,8.3-26.9,8.3c-8.4,0-16.2-2.1-22.8-5.7c0.2-0.2,0.4-0.4,0.6-0.6
		c-0.9-0.2-1.8-0.3-2.6-0.5c0.6,0.4,1.3,0.8,2,1.2c-7.8,7.2-18.9,11.6-31.1,11.6c-4.5,0-8.9-0.6-13-1.7c-4.1,1.1-8.5,1.7-13,1.7
		c-6.6,0-12.9-1.3-18.4-3.6c-7,4.3-15.5,6.8-24.6,6.8c-7.8,0-15-1.8-21.3-4.9c-6.3,3.1-13.5,4.9-21.3,4.9
		c-13.4,0-25.4-5.4-33.2-13.8c-7.7,6.6-18.3,10.6-30,10.6c-14.5,0-27.4-6.3-35.1-15.9c-7.8,7-18.7,11.3-30.7,11.3
		c-11.6,0-22.2-4-30-10.6c-7.6,5.8-17.5,9.3-28.3,9.3c-12.8,0-24.3-4.9-32.2-12.7c-7.9,8.5-19.9,13.9-33.4,13.9
		c-14.5,0-27.3-6.3-35.1-15.8c-7.5,5.7-17.4,9.1-28.1,9.1c-10.8,0-20.7-3.5-28.3-9.3c-7.6,5.8-17.5,9.3-28.3,9.3
		c-8.1,0-15.6-2-22.1-5.3c-7.9,7.5-19.2,12.2-31.7,12.2c-23.8,0-43-16.9-43-37.7c0-3.9,0.7-7.6,1.9-11.2c-3.6-5.5-5.6-11.8-5.6-18.6
		c0-6.3,1.8-12.3,5-17.6c-9.8-6.9-16-17.5-16-29.3c0-11.8,6.2-22.3,15.8-29.2c-3-5.1-4.7-11-4.7-17.2c0-20.8,19.3-37.7,43-37.7
		c9.8,0,18.8,2.9,26,7.7c4.6-1.4,9.5-2.2,14.6-2.2c21.6,0,39.5,13.9,42.5,32.1l-1.5,17c-0.1,0.3-0.2,0.7-0.4,1c0.1,0,0.2,0,0.3,0
		l0.1-1c1.3-3.6,2-7.4,2-11.4c0-1.9-0.2-3.8-0.5-5.6L174.5,355l34.6-1.8L246.3,605c6.1,3.1,11.3,7.5,15.1,12.7c3.9-2.6,8.2-4.6,13-6
		c-2.5-4.8-3.9-10.1-3.9-15.7c0-12.3,6.8-23.3,17.3-30.2c-0.1-0.9-0.1-1.8-0.1-2.7c0-20.8,19.3-37.7,43-37.7
		c18.1,0,33.7,9.8,40,23.8c7.4-11.3,21.4-18.9,37.3-18.9c23.8,0,43,16.9,43,37.7c0,3.5-0.5,6.9-1.6,10.1c0.5,0,1,0,1.6,0
		c23.8,0,43,16.9,43,37.7c0,2.8-0.4,5.5-1,8.1c7.5,1.5,14.2,4.7,19.6,9.2c7.7-6.3,18-10.1,29.4-10.1c11.6,0,22.1,4,29.8,10.5
		c7.7-6.5,18.2-10.5,29.8-10.5c11.3,0,21.6,3.8,29.3,10.1c4.8-16.3,21.6-28.3,41.7-28.3c11.9,0,22.7,4.2,30.4,11
		c3.8-17.4,21.3-30.6,42.3-30.6c21.6,0,39.4,13.9,42.5,32c9.9,2.5,18.3,8,23.8,15.3c5.9-2.7,12.6-4.2,19.7-4.2
		c16.7,0,31.3,8.4,38.4,20.6c3.7-0.9,7.7-1.4,11.8-1.4c8.9,0,17.2,2.4,24,6.4c3.1-5,7.5-9.4,12.8-12.7c-4.9-6.1-7.7-13.5-7.7-21.5
		c0-20.8,19.3-37.7,43-37.7c10.5,0,20.1,3.3,27.6,8.8c6.2-8,16.7-13.2,28.5-13.2c7.7,0,14.8,2.2,20.5,6c5.7-3.8,12.9-6,20.5-6
		c8.9,0,17.1,3,23.2,7.8c6.1-4.9,14.3-7.8,23.2-7.8c19,0,34.5,13.5,34.5,30.2C1131.6,620.1,1123.3,630.6,1111.4,635.4z"/>
	<path class="st1" d="M154.3,587.4c0,4-0.7,7.8-2,11.4l1.5-17C154.1,583.7,154.3,585.5,154.3,587.4z"/>
	<g id="Vlam_onder_de_raket">
		<path class="st21" d="M217,325.6c-0.9,19.8-11.2,37.4-26.7,48.8c-17.4-11.4-28.3-30.9-27.3-52.9c0.2-5.1,1.1-10.1,2.5-14.8
			c4.1-13.6,12.7-25.5,24.2-34c12.7,8.4,22,21,25.6,35.8C216.7,313.9,217.3,319.7,217,325.6z"/>
		<path class="st1" d="M217,325.6c-0.9,19.8-11.2,37.4-26.7,48.8c-17.4-11.4-28.3-30.9-27.3-52.9c0.2-5.1,1.1-10.1,2.5-14.8
			c6.9-2.7,14.6-4.3,22.7-4.3c9.9,0,19.1,2.2,27.1,6.1C216.7,313.9,217.3,319.7,217,325.6z"/>
		<path class="st21" d="M247.9,317.9c-0.2,9.2-2,18.1-5.2,26.6c-1.9-15.4-12.4-28.6-27.4-35.9c1.4,5.4,1.9,11.2,1.7,17.1
			c-0.9,19.8-11.2,37.4-26.7,48.8c-17.4-11.4-28.3-30.9-27.3-52.9c0.2-5.1,1.1-10.1,2.5-14.8c-14.5,5.8-25.6,16.9-29.9,30.4
			c-2.5-7.9-3.7-16.3-3.5-24.8c0.7-32.7,21.7-61.9,54.1-81C224.1,249.8,248.6,281.6,247.9,317.9z"/>
		<path class="st80" d="M239,302.4c-0.2,6.2-1.7,12.2-4.3,17.9c-1.6-10.4-10.4-19.2-22.8-24.2c1.1,3.7,1.6,7.5,1.4,11.5
			c-0.7,13.3-9.4,25.1-22.3,32.8c-14.5-7.7-23.6-20.8-22.8-35.5c0.2-3.4,0.9-6.8,2.1-10c-12.1,3.9-21.4,11.3-24.9,20.4
			c-2.1-5.3-3.1-10.9-3-16.7c0.6-22,18.1-41.6,45.1-54.4C219.1,256.6,239.6,278,239,302.4z"/>
		<path class="st1" d="M224.5,286.9c-0.1,3.7-1.2,7.4-3.1,10.8c-1.1-6.3-7.4-11.6-16.3-14.6c0.8,2.2,1.2,4.5,1,6.9
			c-0.5,8.1-6.7,15.2-15.9,19.8c-10.4-4.7-16.9-12.6-16.3-21.5c0.1-2.1,0.6-4.1,1.5-6c-8.7,2.3-15.3,6.9-17.8,12.4
			c-1.5-3.2-2.2-6.6-2.1-10.1c0.4-13.3,13-25.2,32.3-32.9C210.3,259.2,225,272.1,224.5,286.9z"/>
		<path class="st1" d="M213.9,298.2c-0.7,19.5-8.9,36.9-21,48.1c-13.7-11.3-22.3-30.5-21.5-52.2c0.2-5,0.9-9.9,2-14.6
			c5.5-2.7,11.5-4.2,17.9-4.2c7.8,0,15.1,2.2,21.4,6.1C213.7,286.7,214.1,292.4,213.9,298.2z"/>
	</g>
	<g id="Raket_Onderkant">
		<path class="st81" d="M131.7,283.2c-0.4-2.4-0.6-4.9-0.6-7.4c0-2.5,0.2-5,0.6-7.4V283.2z"/>
		<path class="st82" d="M276.2,252.9L276.2,252.9l0,30.3h-22.7c0.4-2.4,0.6-4.9,0.6-7.4c0-29.9-27.5-54.1-61.5-54.1
			c-31.1,0-56.8,20.3-60.9,46.7c-0.4,2.4-0.6,4.9-0.6,7.4c0,2.5,0.2,5,0.6,7.4v0h-18.8v-32.4c0-32.9,39.5-59.2,83.6-59.2
			s79.8,26.6,79.8,59.5C276.3,251.7,276.2,252.3,276.2,252.9z"/>
		<path class="st82" d="M131.7,268.3v14.8c-0.4-2.4-0.6-4.9-0.6-7.4C131.1,273.2,131.3,270.8,131.7,268.3z"/>
	</g>
	<g id="Raket_Bovenkant">
		<path class="st40" d="M191.1,238.8c-23.6,0-49.5-48.9-42.8-108.7c2-17.5,5.7-32.8,10.1-46c4.4-13.1,9.6-24.2,14.5-33.2
			c8.3-15.2,15.8-24.7,17.9-29c0.1-0.2,0.2-0.4,0.3-0.5c0-0.1,0.1-0.1,0.2-0.1c0,0,0,0,0,0c0,0,0,0,0,0c0.2,0,0.4,0.2,0.6,0.5l0,0
			c0.3,0.3,0.7,0.8,1.2,1.4l0,0c1,1.3,2.4,3.3,3.9,5.8l0,0.1c0.3,0.4,0.6,0.9,0.8,1.4c0.5,0.8,0.9,1.6,1.4,2.4l0,0
			c2.8,4.8,6.1,10.9,9.5,18.2c4.5,9.5,9.3,20.7,13.5,33.1c4.9,14.2,9,29.9,11.3,46C242.4,189.7,214.7,238.8,191.1,238.8z"/>
		<path class="st83" d="M191.4,98.2v30.2c-9.4,0-17.1-6.8-17.1-15.1C174.3,105,181.9,98.2,191.4,98.2z"/>
		<ellipse class="st82" cx="191.4" cy="240.4" rx="9.3" ry="46.7"/>
		<ellipse class="st84" cx="191.4" cy="113.2" rx="18.9" ry="16.6"/>
		<ellipse class="st84" cx="191.6" cy="113.5" rx="18.9" ry="16.6"/>
		<path class="st85" d="M191.4,98v30.4c9.7,0,17.6-6.8,17.6-15.2C209,104.8,201.1,98,191.4,98z"/>
		<path class="st86" d="M222.6,84.1L192.8,84l-1.4-60.6l0-2l0-1l1.9,2.8l0,0l4.8,7.2c0.5,0.8,0.9,1.6,1.4,2.4l0,0
			c2.8,4.8,6.1,10.9,9.5,18.2C213.6,60.4,218.3,71.7,222.6,84.1z"/>
		<path class="st87" d="M192.6,84.1l-34.2,0.1c4.4-13.1,9.6-24.2,14.5-33.2c8.3-15.2,15.8-24.7,17.9-29c0.1-0.2,0.2-0.4,0.3-0.5
			c0-0.1,0.1-0.1,0.2-0.1l0,2L192.6,84.1z"/>
	</g>
</g>
<g id="Layer_14">
	<path class="st88" d="M291.9,640.9c-0.1,0.1-0.1,0.1-0.2,0.2c0-0.1-0.1-0.1-0.1-0.2L291.9,640.9z"/>
	<path class="st88" d="M762.1,733.5c-0.3,0.3-0.5,0.5-0.8,0.8c-0.8-0.5-1.6-1-2.4-1.6C760,733,761,733.3,762.1,733.5z"/>
	<path class="st88" d="M762.1,733.5c-0.3,0.3-0.5,0.5-0.8,0.8c-0.8-0.5-1.6-1-2.4-1.6C760,733,761,733.3,762.1,733.5z"/>
	<path class="st88" d="M291.9,640.9c-0.1,0.1-0.1,0.1-0.2,0.2c0-0.1-0.1-0.1-0.1-0.2L291.9,640.9z"/>
	<path class="st88" d="M291.9,640.9c-0.1,0.1-0.1,0.1-0.2,0.2c0-0.1-0.1-0.1-0.1-0.2L291.9,640.9z"/>
	<path class="st88" d="M915.1,637.2c-0.7-0.3-1.3-0.7-2-1c0.4-0.2,0.9-0.4,1.3-0.6C914.6,636.2,914.9,636.7,915.1,637.2z"/>
	<path class="st88" d="M887.5,662.1c-0.1,0.2-0.1,0.3-0.2,0.5c-0.1-0.3-0.3-0.7-0.4-1C887.1,661.7,887.3,661.9,887.5,662.1z"/>
	<path class="st88" d="M888.3,705.6c-0.8,0.3-1.6,0.6-2.4,0.9c0.5-1,1-2,1.4-3C887.6,704.2,887.9,704.9,888.3,705.6z"/>
	<path class="st88" d="M915.1,637.2c-0.7-0.3-1.3-0.7-2-1c0.4-0.2,0.9-0.4,1.3-0.6C914.6,636.2,914.9,636.7,915.1,637.2z"/>
	<path class="st88" d="M887.5,662.1c-0.1,0.2-0.1,0.3-0.2,0.5c-0.1-0.3-0.3-0.7-0.4-1C887.1,661.7,887.3,661.9,887.5,662.1z"/>
	<path class="st88" d="M888.3,705.6c-0.8,0.3-1.6,0.6-2.4,0.9c0.5-1,1-2,1.4-3C887.6,704.2,887.9,704.9,888.3,705.6z"/>
	<path class="st88" d="M915.1,637.2c-0.7-0.3-1.3-0.7-2-1c0.4-0.2,0.9-0.4,1.3-0.6C914.6,636.2,914.9,636.7,915.1,637.2z"/>
	<path class="st88" d="M1252.1,709.3l-0.7,0.1c0.2-0.2,0.3-0.4,0.5-0.6C1252,709,1252,709.1,1252.1,709.3z"/>
	<path class="st1" d="M154.3,587.4c0,4-0.7,7.8-2,11.4l1.5-17C154.1,583.7,154.3,585.5,154.3,587.4z"/>
	<text transform="matrix(1 0 0 1 355.899 191.6636)" class="st1 st89 st90">Data Warehouse vliegende start</text>
</g>
</svg>
