<?xml version="1.0" encoding="utf-8"?>
<!-- Generator: Adobe Illustrator 22.1.0, SVG Export Plug-In . SVG Version: 6.00 Build 0)  -->
<svg version="1.1" xmlns="http://www.w3.org/2000/svg" xmlns:xlink="http://www.w3.org/1999/xlink" x="0px" y="0px"
	 viewBox="0 0 1366 768" style="enable-background:new 0 0 1366 768;" xml:space="preserve">
<style type="text/css">
	.st0{fill:#6A7ACE;}
	.st1{fill:#DEC359;}
	.st2{fill:#6A7ACE;stroke:#FAAC44;stroke-miterlimit:10;}
	.st3{fill:#DCC556;}
	.st4{fill:#6A7ACE;stroke:#DCC556;stroke-width:5.211;stroke-miterlimit:10;}
	.st5{fill:#6A7ACE;stroke:#DCC556;stroke-width:2;stroke-miterlimit:10;}
	.st6{fill:none;stroke:#FCC021;stroke-width:2;stroke-miterlimit:10;}
	.st7{fill:none;stroke:#DCC556;stroke-width:2;stroke-miterlimit:10;}
	.st8{fill:#FFDD67;}
	.st9{fill:#EBA352;}
	.st10{fill:#0B2242;}
	.st11{font-family:'MyriadPro-Regular';}
	.st12{font-size:70.3932px;}
	.st13{fill:none;stroke:#0B2242;stroke-width:2.8938;stroke-miterlimit:10;}
	.st14{fill:none;stroke:#0B2242;stroke-width:15.0796;stroke-miterlimit:10;}
	.st15{fill:none;stroke:#0B2242;stroke-width:5.7875;stroke-miterlimit:10;}
	.st16{fill:#FFFFFF;stroke:#000000;stroke-miterlimit:10;}
	.st17{fill:#0071BC;}
	.st18{fill:#FFFFFF;}
	.st19{fill:#B8D432;}
	.st20{fill:#7FBA00;}
	.st21{fill:#0095BC;}
	.st22{fill:#FFFFFF;stroke:#000000;stroke-width:1.571700e-02;stroke-miterlimit:10;}
	.st23{fill:#FFFFFF;stroke:#000000;stroke-width:1.896413e-02;stroke-miterlimit:10;}
	.st24{fill:#FFFFFF;stroke:#000000;stroke-width:2.177311e-02;stroke-miterlimit:10;}
	.st25{fill:#FFFFFF;stroke:#000000;stroke-width:1.877159e-02;stroke-miterlimit:10;}
	.st26{fill:#FFFFFF;stroke:#000000;stroke-width:2.343383e-02;stroke-miterlimit:10;}
	.st27{fill:none;stroke:#FFFFFF;stroke-width:0.4142;stroke-miterlimit:10;}
	.st28{fill:#FFFFFF;stroke:#FFFFFF;stroke-width:0.2969;stroke-miterlimit:10;}
	.st29{fill:#0081FF;}
	.st30{fill:#FFFFFF;stroke:#000000;stroke-width:6.181871e-03;stroke-miterlimit:10;}
	.st31{fill:#FFFFFF;stroke:#FFFFFF;stroke-width:0.5873;stroke-miterlimit:10;}
	.st32{fill:#FFFFFF;stroke:#000000;stroke-width:1.222807e-02;stroke-miterlimit:10;}
	.st33{fill:#FFFFFF;stroke:#7FBA00;stroke-width:2.4391;stroke-miterlimit:10;}
	.st34{fill:#C1272D;}
	.st35{fill:#009245;}
	.st36{fill:#D9E021;}
	.st37{fill:#FFFF00;}
	.st38{fill:#FCC021;}
	.st39{fill:#FF931E;}
	.st40{fill:#ED4F24;}
	.st41{fill:#2E3192;}
	.st42{fill:#666666;}
	.st43{fill:#41210A;stroke:#000000;stroke-width:0.9439;stroke-miterlimit:10;}
	.st44{fill:#FF7257;stroke:#000000;stroke-width:0.1335;stroke-miterlimit:10;}
	.st45{fill:#845D36;stroke:#000000;stroke-width:0.2725;stroke-miterlimit:10;}
	.st46{fill:#523418;stroke:#000000;stroke-width:0.2728;stroke-miterlimit:10;}
	.st47{fill:#FF7257;stroke:#000000;stroke-width:0.1544;stroke-miterlimit:10;}
	.st48{fill:#41210A;stroke:#000000;stroke-width:0.4093;stroke-miterlimit:10;}
	.st49{fill:#41210A;stroke:#000000;stroke-width:0.2602;stroke-miterlimit:10;}
	.st50{fill:#E3E3E3;stroke:#000000;stroke-width:0.8018;stroke-miterlimit:10;}
	.st51{fill:#FED9A2;}
	.st52{fill:#F15A24;}
	.st53{fill:#CCCCCC;}
	.st54{fill:#E3E3E3;}
	.st55{fill:#E9E9E0;}
	.st56{fill:#FBB03B;}
	.st57{fill:#E9F7E2;}
	.st58{fill:#006837;}
	.st59{fill:#8C6239;}
	.st60{stroke:#FFFFFF;stroke-width:0.6418;stroke-miterlimit:10;}
	.st61{stroke:#FFFFFF;stroke-width:0.6687;stroke-miterlimit:10;}
	.st62{fill:none;stroke:#FFFFFF;stroke-width:3.1594;stroke-miterlimit:10;}
	.st63{fill:#FFFFFF;stroke:#FFFFFF;stroke-width:0.6295;stroke-miterlimit:10;}
	.st64{fill:#F7931E;}
	.st65{fill:#00FFFF;}
	.st66{fill:#41210A;stroke:#000000;stroke-width:1.1822;stroke-miterlimit:10;}
	.st67{fill:#FF7257;stroke:#000000;stroke-width:0.1672;stroke-miterlimit:10;}
	.st68{fill:#845D36;stroke:#000000;stroke-width:0.3413;stroke-miterlimit:10;}
	.st69{fill:#523418;stroke:#000000;stroke-width:0.3417;stroke-miterlimit:10;}
	.st70{fill:#FF7257;stroke:#000000;stroke-width:0.1934;stroke-miterlimit:10;}
	.st71{fill:#41210A;stroke:#000000;stroke-width:0.5126;stroke-miterlimit:10;}
	.st72{fill:#41210A;stroke:#000000;stroke-width:0.3259;stroke-miterlimit:10;}
	.st73{fill:#E3E3E3;stroke:#000000;stroke-width:1.0042;stroke-miterlimit:10;}
	.st74{stroke:#FFFFFF;stroke-width:0.5719;stroke-miterlimit:10;}
	.st75{fill:none;stroke:#FFFFFF;stroke-width:3.957;stroke-miterlimit:10;}
	.st76{fill:#FFFFFF;stroke:#FFFFFF;stroke-width:0.7884;stroke-miterlimit:10;}
	.st77{fill:#FFFFFF;stroke:#000000;stroke-width:3;stroke-miterlimit:10;}
	.st78{fill:none;stroke:#000000;stroke-miterlimit:10;}
	.st79{fill:#FFFFFF;stroke:#000000;stroke-width:1.6966;stroke-miterlimit:10;}
	.st80{fill:#39B54A;}
	.st81{fill:none;stroke:#000000;stroke-width:1.2329;stroke-miterlimit:10;}
	.st82{fill:#FFFFFF;stroke:#000000;stroke-width:2.7945;stroke-miterlimit:10;}
	.st83{fill:none;stroke:#000000;stroke-width:1.3443;stroke-miterlimit:10;}
	.st84{fill:#FFFFFF;stroke:#000000;stroke-width:1.0192;stroke-miterlimit:10;}
	.st85{fill:#2A6F56;}
	.st86{fill:#FFFFFF;stroke:#29ABE2;stroke-width:8.2214;stroke-miterlimit:10;}
	.st87{fill:#3FA9F5;stroke:#29ABE2;stroke-width:3.2996;stroke-miterlimit:10;}
	.st88{fill:#FFFFFF;stroke:#8CC63F;stroke-width:6.1593;stroke-miterlimit:10;}
	.st89{fill:#7AC943;stroke:#8CC63F;stroke-width:2.902;stroke-miterlimit:10;}
	.st90{fill:#FFFFFF;stroke:#3FA9F5;stroke-width:2.4979;stroke-miterlimit:10;}
	.st91{fill:#FFFFFF;stroke:#29ABE2;stroke-width:8.0666;stroke-miterlimit:10;}
	.st92{fill:#3FA9F5;stroke:#29ABE2;stroke-width:2.5137;stroke-miterlimit:10;}
	.st93{fill:#FFFFFF;stroke:#8CC63F;stroke-width:6.0433;stroke-miterlimit:10;}
	.st94{fill:#7AC943;stroke:#8CC63F;stroke-width:2.8474;stroke-miterlimit:10;}
	.st95{fill:#F2EC1C;}
	.st96{fill:#FF1F27;}
	.st97{fill:#B3B3B3;}
	.st98{fill:#11546F;}
	.st99{fill:none;stroke:#FF1F27;stroke-width:3.2712;stroke-miterlimit:10;}
	.st100{fill:#0B1C2E;}
	.st101{fill:#FF1D25;}
	.st102{fill:#F0514E;}
	.st103{fill:#FFFFFF;stroke:#0B2242;stroke-miterlimit:10;}
</style>
<g id="GPDR_Background">
</g>
<g id="GPDR_Standaarden">
	<text transform="matrix(0.9734 0 0 1 376 586.0684)" class="st10 st11 st12">Standaarden</text>
	<rect x="443.5" y="415.3" class="st13" width="41.9" height="43.1"/>
	<rect x="477.1" y="118.3" class="st10" width="118.9" height="43.1"/>
	<ellipse class="st14" cx="720.2" cy="323" rx="65.2" ry="66.9"/>
	<rect x="443.5" y="359.6" class="st13" width="41.9" height="43.1"/>
	<rect x="443.5" y="298" class="st13" width="41.9" height="43.1"/>
	<rect x="443.5" y="236.4" class="st13" width="41.9" height="43.1"/>
	<line class="st15" x1="507.3" y1="436.9" x2="598.7" y2="436.9"/>
	<line class="st15" x1="507.3" y1="378.2" x2="598.7" y2="378.2"/>
	<line class="st15" x1="507.3" y1="319.5" x2="598.7" y2="319.5"/>
	<line class="st15" x1="507.3" y1="258" x2="598.7" y2="258"/>
	<rect x="416" y="139.9" class="st15" width="274.1" height="355.6"/>
	<g>
		<g>
			<g>
				<path class="st8" d="M725,319c0,0-4.4,1-0.8-7.8c2.7-6.4,2.4-13.9,0-17.8c-3.8-6.3-11.3-4.3-10.5-0.6
					c2.7,12.5-3.3,16.2-6.5,24.1c-3.1,8-2.8,19.3-1.4,29.4c0.9,6.3,3.2,14.1,11.7,14.1h11.7L725,319z"/>
				<path class="st9" d="M718.8,358.6c-8.5,0-10.3-7.8-11.2-14.1c-1.4-10.1-1.7-18.2,1.1-26.3c3-8.9,6.2-9.1,6.2-26.7
					c0-0.9,0.4-1.5,0.8-1.8c-1.4,0.6-2.2,1.5-2.2,3c0,13.1-3.2,16.4-6.3,24.2c-3.1,8-2.8,19.3-1.4,29.4c0.9,6.3,3.2,14.1,11.7,14.1
					h11.7v-1.8H718.8z"/>
				<path class="st8" d="M739.5,329.3H725c-5.1,0-5.1-10.3,0-10.3h14.5C744.5,319,744.5,329.3,739.5,329.3z"/>
				<path class="st9" d="M740.6,327.6h-14.5c-3.4,0-4.5-4.7-3.3-7.8c-2.7,2.5-2,9.5,2.2,9.5h14.5c1.6,0,2.7-1.1,3.3-2.6
					C742.2,327.3,741.5,327.6,740.6,327.6z"/>
				<path class="st8" d="M741,339.7h-17.4c-6.1,0-6.1-10.3,0-10.3h17.4C747.1,329.4,747.1,339.7,741,339.7z"/>
				<path class="st9" d="M742.4,338H725c-4.1,0-5.4-4.7-4-7.8c-3.2,2.5-2.4,9.5,2.6,9.5H741c2,0,3.3-1.1,4-2.6
					C744.3,337.6,743.5,338,742.4,338z"/>
				<path class="st8" d="M739.4,350h-14.7c-5.1,0-5.1-10.3,0-10.3h14.7C744.6,339.7,744.6,350,739.4,350z"/>
				<path class="st9" d="M740.6,348.3h-14.7c-3.5,0-4.6-4.7-3.4-7.8c-2.7,2.5-2,9.5,2.2,9.5h14.7c1.7,0,2.8-1.1,3.4-2.6
					C742.2,348,741.5,348.3,740.6,348.3z"/>
				<path class="st8" d="M737.8,360.3h-9.5c-5.5,0-5.5-10.3,0-10.3h9.5C743.3,350,743.3,360.3,737.8,360.3z"/>
				<path class="st9" d="M739.1,358.6h-9.5c-3.7,0-4.9-4.7-3.6-7.8c-2.9,2.5-2.2,9.5,2.4,9.5h9.5c1.8,0,3-1.1,3.6-2.6
					C740.8,358.3,740,358.6,739.1,358.6z"/>
			</g>
		</g>
	</g>
</g>
<g id="Layer_19">
</g>
<g id="GPDR_Cloud">
</g>
<g id="Law">
	<g id="Law_hammer">
	</g>
</g>
<g id="Layer_20">
</g>
<g id="Laag_1">
	<g id="Database">
		<g id="Chart">
		</g>
	</g>
	<g id="Acceleration">
		<g id="Groene_kader">
		</g>
	</g>
	<g id="Developer">
		<g id="Bril">
		</g>
	</g>
	<g id="Processen">
	</g>
	<g id="Processen__x28_1_x29_">
	</g>
</g>
<g id="Vliegende_start_achtergrond">
	<g id="Vlam_onder_de_raket">
	</g>
	<g id="Raket_Onderkant">
	</g>
	<g id="Raket_Bovenkant">
	</g>
</g>
<g id="Layer_14">
</g>
</svg>
